<svg id="certificate" xmlns="http://www.w3.org/2000/svg" width="38.277" height="41.865" viewBox="0 0 38.277 41.865">
    <path id="Pfad_55" d="M17.177,22.55H43.492V9.392A2.392,2.392,0,0,0,41.1,7H12.392A2.392,2.392,0,0,0,10,9.392V45.277a2.392,2.392,0,0,0,2.392,2.392H32.727V39.3H17.177a1.2,1.2,0,1,1,0-2.392H31.244a10.012,10.012,0,0,1-.909-4.186v-.6H17.177a1.2,1.2,0,1,1,0-2.392h13.6a10.239,10.239,0,0,1,3.146-4.785H17.177a1.2,1.2,0,1,1,0-2.392Zm0-9.569H25.55a1.2,1.2,0,1,1,0,2.392H17.177a1.2,1.2,0,0,1,0-2.392Z" transform="translate(-10 -7)"/>
    <ellipse id="Ellipse_8" cx="7.938" cy="7.541" rx="7.938" ry="7.541" transform="translate(22.4 18.05)"/>
    <path id="Pfad_56" d="M41.765,35.71A10.155,10.155,0,0,1,31,35.71v7.524l5.383-2.392,5.383,2.392Z" transform="translate(-5.881 -1.369)"/>
</svg>
