<svg id="crown" xmlns="http://www.w3.org/2000/svg" width="64.725" height="41.394" viewBox="0 0 64.725 41.394">
    <path id="Pfad_58" d="M82.384,80.086H41.11a1.905,1.905,0,0,1-1.575-.833c-5.446-7.986-5.863-23.348-5.9-25.628,0-.089,0-.18,0-.27a1.906,1.906,0,0,1,1.9-1.906h0a1.906,1.906,0,0,1,1.906,1.9c0,.013,0,.125,0,.325a10.1,10.1,0,0,0,20.2-.318,1.906,1.906,0,0,1,1.906-1.906h4.379a1.906,1.906,0,0,1,1.906,1.906,10.1,10.1,0,0,0,20.2.3c0-.191,0-.3,0-.31a1.906,1.906,0,0,1,1.906-1.9h0a1.906,1.906,0,0,1,1.9,1.906c0,.09,0,.18,0,.27-.032,2.28-.45,17.642-5.9,25.628A1.907,1.907,0,0,1,82.384,80.086Zm0,0" transform="translate(-29.385 -44.945)" fill="#fff780"/>
    <path id="Pfad_59" d="M282.21,51.449h0a1.906,1.906,0,0,0-1.906,1.9c0,.013,0,.119,0,.31a10.1,10.1,0,0,1-20.2-.3,1.906,1.906,0,0,0-1.906-1.906H256V80.085h20.637a1.906,1.906,0,0,0,1.575-.832c5.446-7.986,5.863-23.348,5.9-25.628,0-.089,0-.18,0-.27A1.907,1.907,0,0,0,282.21,51.449Zm0,0" transform="translate(-223.641 -44.945)" fill="#ffc02e"/>
    <path id="Pfad_60" d="M213.44,0A6.159,6.159,0,1,0,219.6,6.159,6.166,6.166,0,0,0,213.44,0Zm0,0" transform="translate(-181.078)" fill="#ffc02e"/>
    <path id="Pfad_61" d="M256,0V12.318A6.159,6.159,0,0,0,256,0Zm0,0" transform="translate(-223.641)" fill="#ffa73b"/>
    <path id="Pfad_62" d="M6.159,37.6a6.159,6.159,0,1,0,6.158,6.159A6.166,6.166,0,0,0,6.159,37.6Zm0,0" transform="translate(0 -32.845)" fill="#ffc02e"/>
    <path id="Pfad_63" d="M420.725,37.6a6.159,6.159,0,1,0,6.159,6.159A6.165,6.165,0,0,0,420.725,37.6Zm0,0" transform="translate(-362.159 -32.845)" fill="#ffa73b"/>
    <path id="Pfad_64" d="M120.853,274.989H79.578a1.906,1.906,0,0,1-1.906-1.906V267.4h45.087v5.684A1.906,1.906,0,0,1,120.853,274.989Zm0,0" transform="translate(-67.853 -233.595)" fill="#ffc02e"/>
    <path id="Pfad_65" d="M256,274.989h20.637a1.906,1.906,0,0,0,1.906-1.906V267.4H256Zm0,0" transform="translate(-223.641 -233.595)" fill="#ffa73b"/>
</svg>
