<svg xmlns="http://www.w3.org/2000/svg" width="40.029" height="40.029" viewBox="0 0 40.029 40.029">
    <g id="debugging-2" transform="translate(0)">
        <path id="Pfad_36" d="M163.686,120h-3.241l-1.173,2.345h5.586Z" transform="translate(-146.82 -110.618)" fill="#f0c419"/>
        <path id="Pfad_37" d="M150,183.518a3.513,3.513,0,0,0,2.345,3.3V180H150Z" transform="translate(-138.273 -165.927)" fill="#f0c419"/>
        <path id="Pfad_38" d="M15.245,0A15.245,15.245,0,1,0,30.491,15.245,15.263,15.263,0,0,0,15.245,0Zm7.036,16.418A3.522,3.522,0,0,1,25.8,19.936a1.173,1.173,0,1,1-2.345,0,1.174,1.174,0,0,0-1.173-1.173H20.99a5.812,5.812,0,0,1-1.181,2.463,4.522,4.522,0,0,1,1.3,3.153v.247a1.173,1.173,0,0,1-2.345,0V24.38a2.2,2.2,0,0,0-.744-1.655,5.636,5.636,0,0,1-5.548,0,2.2,2.2,0,0,0-.744,1.655v.247a1.173,1.173,0,0,1-2.345,0V24.38a4.522,4.522,0,0,1,1.3-3.153A5.811,5.811,0,0,1,9.5,18.763H8.209a1.174,1.174,0,0,0-1.173,1.173,1.173,1.173,0,1,1-2.345,0,3.522,3.522,0,0,1,3.518-3.518H9.382V13.625l-1.945-.972a.276.276,0,0,0-.4.247,1.173,1.173,0,0,1-2.345,0,2.622,2.622,0,0,1,3.794-2.345l1.545.772,1.194-2.389A3.507,3.507,0,0,1,9.382,5.864a1.173,1.173,0,0,1,2.345,0A1.174,1.174,0,0,0,12.9,7.036h4.691a1.174,1.174,0,0,0,1.173-1.173,1.173,1.173,0,0,1,2.345,0,3.507,3.507,0,0,1-1.842,3.074l1.194,2.389L22,10.554A2.622,2.622,0,0,1,25.8,12.9a1.173,1.173,0,1,1-2.345,0,.277.277,0,0,0-.4-.247l-1.943.972v2.793Z" transform="translate(0)" fill="#f0c419"/>
        <path id="Pfad_39" d="M210,186.82a3.513,3.513,0,0,0,2.345-3.3V180H210Z" transform="translate(-193.582 -165.927)" fill="#f0c419"/>
        <path id="Pfad_40" d="M318.959,323.934l1.886,1.886,4.975-4.975-1.886-1.886A17.726,17.726,0,0,1,318.959,323.934Z" transform="translate(-294.023 -294.023)" fill="#f0c419"/>
        <path id="Pfad_41" d="M374.809,369.834l-5.545-5.545-4.975,4.975,5.545,5.545a3.518,3.518,0,1,0,4.975-4.975Z" transform="translate(-335.809 -335.809)" fill="#f0c419"/>
    </g>
</svg>
