<svg id="management" xmlns="http://www.w3.org/2000/svg" width="41.559" height="41.784" viewBox="0 0 41.559 41.784">
    <g id="Gruppe_10" transform="translate(13.762 13.987)">
        <g id="Gruppe_9" >
            <path id="Pfad_66" d="M185.007,173.109v-4l-4-.424a10.128,10.128,0,0,0-1.186-2.862l2.53-3.13-2.827-2.827-3.13,2.531a10.127,10.127,0,0,0-2.862-1.186l-.424-4h-4l-.424,4a10.128,10.128,0,0,0-2.862,1.186l-3.13-2.531-2.827,2.827,2.53,3.13a10.128,10.128,0,0,0-1.186,2.862l-4,.424v4l4,.424a10.128,10.128,0,0,0,1.186,2.862l-2.53,3.13,2.827,2.827,3.13-2.531a10.126,10.126,0,0,0,2.862,1.186l.424,4h4l.424-4a10.127,10.127,0,0,0,2.862-1.186l3.13,2.531,2.827-2.827-2.53-3.13a10.127,10.127,0,0,0,1.186-2.862Zm-13.9,2.684a4.683,4.683,0,1,1,4.683-4.683A4.683,4.683,0,0,1,171.109,175.793Z" transform="translate(-157.21 -157.211)" fill="#fff"/>
        </g>
    </g>
    <g id="Gruppe_12" >
        <g id="Gruppe_11" >
            <path id="Pfad_67" d="M18.567,8.954a7.9,7.9,0,0,0-.926-2.233l1.974-2.442L17.41,2.073,14.968,4.048a7.9,7.9,0,0,0-2.233-.926L12.4,0H9.285L8.954,3.122a7.9,7.9,0,0,0-2.233.926L4.279,2.073,2.073,4.279,4.048,6.721a7.9,7.9,0,0,0-.926,2.233L0,9.285V12.4l3.122.331a7.9,7.9,0,0,0,.926,2.233L2.073,17.41l2.206,2.206,2.442-1.974a7.9,7.9,0,0,0,2.233.926l.331,3.122H12.4l.312-2.943-.9-1.112,1.5-1.5,2.827-2.827,1.5-1.5,1.112.9,2.943-.312V9.285ZM10.845,14.5A3.654,3.654,0,1,1,14.5,10.845,3.654,3.654,0,0,1,10.845,14.5Z" fill="#fff"/>
        </g>
    </g>
</svg>
