<svg xmlns="http://www.w3.org/2000/svg" width="38.844" height="43.506" viewBox="0 0 38.844 43.506">
    <path id="secure" d="M50.613,6.089a1.422,1.422,0,0,0-1.027-1.174L32.1.053a1.421,1.421,0,0,0-.762,0L13.852,4.915a1.422,1.422,0,0,0-1.027,1.174c-.1.729-2.415,17.96,3.519,26.532A27.917,27.917,0,0,0,31.385,43.467a1.426,1.426,0,0,0,.668,0A27.916,27.916,0,0,0,47.093,32.622C53.028,24.05,50.714,6.819,50.613,6.089Zm-7.618,10.06L31.067,28.076a1.421,1.421,0,0,1-2.011,0L21.682,20.7a1.421,1.421,0,0,1,0-2.011l1.464-1.464a1.422,1.422,0,0,1,2.011,0l4.9,4.9,9.458-9.458a1.421,1.421,0,0,1,2.011,0l1.464,1.464A1.422,1.422,0,0,1,42.995,16.149Z" transform="translate(-12.296 0)"/>
</svg>
