<svg xmlns="http://www.w3.org/2000/svg" width="342.859" height="354.287" viewBox="0 -15 342.859 354.287">
    <g id="server" transform="translate(-8)">
        <path id="Pfad_1" d="M333.715,143.429c0,6.857-3.429,10.857-10.286,10.857H58.286c-6.857,0-10.286-4-10.286-10.857v-12C48,124.571,51.429,120,58.286,120H323.43c6.857,0,10.286,4.571,10.286,11.429Z" transform="translate(-11.428 -34.285)" fill="#112827"/>
        <path id="Pfad_2" d="M350.859,93.715c0,6.857-8.571,14.857-14.857,14.857H22.857c-6.286,0-14.857-8-14.857-14.857V13.143C8,6.286,16.571,0,22.857,0H336c6.286,0,14.857,6.286,14.857,13.143Z" fill="#5c605f"/>
        <path id="Pfad_3" d="M8,13.143C8,6.286,16.571,0,22.857,0H336c6.286,0,14.857,6.286,14.857,13.143V93.715c0,6.857-8.571,14.857-14.857,14.857" fill="#4b4f4e"/>
        <g id="Gruppe_1" transform="translate(36.572 33.143)">
            <path id="Pfad_4" d="M53.714,84.114c0,1.143-1.714,2.286-2.857,2.286h0C49.714,86.4,48,85.257,48,84.114V48.686c0-1.143,1.714-2.286,2.857-2.286h0c1.143,0,2.857,1.143,2.857,2.286Z" transform="translate(-48 -46.4)" fill="#112827"/>
            <path id="Pfad_5" d="M77.714,84.114c0,1.143-1.714,2.286-2.857,2.286h0C73.714,86.4,72,85.257,72,84.114V48.686c0-1.143,1.714-2.286,2.857-2.286h0c1.143,0,2.857,1.143,2.857,2.286Z" transform="translate(-54.857 -46.4)" fill="#112827"/>
            <path id="Pfad_6" d="M101.714,84.114c0,1.143-1.714,2.286-2.857,2.286h0C97.714,86.4,96,85.257,96,84.114V48.686c0-1.143,1.714-2.286,2.857-2.286h0c1.143,0,2.857,1.143,2.857,2.286Z" transform="translate(-61.714 -46.4)" fill="#112827"/>
        </g>
        <g id="Gruppe_2" transform="translate(93.715 35.429)">
            <path id="Pfad_7" d="M305.144,74.857a2.7,2.7,0,0,1-2.857,2.857H130.857A2.7,2.7,0,0,1,128,74.857h0A2.7,2.7,0,0,1,130.857,72H301.715c2.286,0,3.429,1.143,3.429,2.857Z" transform="translate(-128 -56)" fill="#afbcb8"/>
            <circle id="Ellipse_1" cx="17.714" cy="17.714" r="17.714" transform="translate(158.286)" fill="#afbcb8"/>
        </g>
        <path id="Pfad_54" d="M8.571,0A8.571,8.571,0,1,1,0,8.571,8.571,8.571,0,0,1,8.571,0Z" transform="translate(261.144 44.572)" fill="#16b7ec"/>
        <path id="Pfad_8" d="M376.571,78.4a8.485,8.485,0,1,1-12-12" transform="translate(-101.142 -18.971)" fill="#60b8d2"/>
        <path id="Pfad_9" d="M440.343,70.971a8.571,8.571,0,1,1-8.571-8.571A8.788,8.788,0,0,1,440.343,70.971Z" transform="translate(-118.627 -17.828)" fill="#60b8d2"/>
        <path id="Pfad_10" d="M437.372,78.4a8.485,8.485,0,1,1-12-12" transform="translate(-118.513 -18.971)" fill="#16b7ec"/>
        <path id="Pfad_11" d="M333.715,305.143C333.715,312,330.287,320,323.43,320H58.286C51.429,320,48,312,48,305.143v-12C48,286.286,51.429,280,58.286,280H323.43c6.857,0,10.286,6.286,10.286,13.143Z" transform="translate(-11.428 -79.999)" fill="#112827"/>
        <path id="Pfad_12" d="M350.859,255.429c0,6.857-8.571,13.143-14.857,13.143H22.857C16.571,268.572,8,262.286,8,255.429V174.857C8,168,16.571,160,22.857,160H336c6.857,0,14.857,8,14.857,14.857v80.572Z" transform="translate(0 -45.714)" fill="#5c605f"/>
        <path id="Pfad_13" d="M8,174.857C8,168,16.571,160,22.857,160H336c6.857,0,14.857,8,14.857,14.857v80.572c0,6.857-8.571,13.143-14.857,13.143" transform="translate(0 -45.714)" fill="#4b4f4e"/>
        <g id="Gruppe_3" transform="translate(36.572 149.143)">
            <path id="Pfad_14" d="M53.714,246.514c0,1.143-1.714,2.286-2.857,2.286h0c-1.143.571-2.857-.571-2.857-2.286V211.086c0-1.143,1.714-2.286,2.857-2.286h0c1.143,0,2.857,1.143,2.857,2.286Z" transform="translate(-48 -208.8)" fill="#112827"/>
            <path id="Pfad_15" d="M77.943,245.943a2.458,2.458,0,0,1-2.286,2.286h-.571a2.458,2.458,0,0,1-2.286-2.286V211.086a2.458,2.458,0,0,1,2.286-2.286h.571a2.458,2.458,0,0,1,2.286,2.286Z" transform="translate(-55.086 -208.8)" fill="#112827"/>
            <path id="Pfad_16" d="M101.943,245.943a2.458,2.458,0,0,1-2.286,2.286h-.571a2.458,2.458,0,0,1-2.286-2.286V211.086a2.458,2.458,0,0,1,2.286-2.286h.571a2.458,2.458,0,0,1,2.286,2.286Z" transform="translate(-61.943 -208.8)" fill="#112827"/>
        </g>
        <g id="Gruppe_4" transform="translate(93.715 151.429)">cr
            <path id="Pfad_17" d="M303.429,234.857a2.7,2.7,0,0,1-2.857,2.857H130.857A2.7,2.7,0,0,1,128,234.857h0A2.7,2.7,0,0,1,130.857,232H300.572a2.7,2.7,0,0,1,2.857,2.857Z" transform="translate(-128 -217.714)" fill="#afbcb8"/>
            <circle id="Ellipse_3" cx="17.714" cy="17.714" r="17.714" transform="translate(158.286)" fill="#afbcb8"/>
        </g>
        <path id="Pfad_52" d="M8.571,0A8.571,8.571,0,1,1,0,8.571,8.571,8.571,0,0,1,8.571,0Z" transform="translate(261.144 160.572)" fill="#16b7ec"/>
        <path id="Pfad_18" d="M376.571,240.8a8.485,8.485,0,1,1-12-12" transform="translate(-101.142 -65.371)" fill="#60b8d2"/>
        <path id="Pfad_19" d="M440.343,233.371a8.571,8.571,0,1,1-8.571-8.571A8.788,8.788,0,0,1,440.343,233.371Z" transform="translate(-118.627 -64.228)" fill="#60b8d2"/>
        <path id="Pfad_20" d="M437.372,240.8a8.485,8.485,0,1,1-12-12" transform="translate(-118.513 -65.371)" fill="#16b7ec"/>
        <path id="Pfad_21" d="M333.715,469.143c0,6.857-3.429,13.143-10.286,13.143H58.286C51.429,482.286,48,476,48,469.143v-12C48,450.857,51.429,448,58.286,448H323.43c6.857,0,10.286,2.857,10.286,9.143Z" transform="translate(-11.428 -127.999)" fill="#112827"/>
        <path id="Pfad_22" d="M350.859,419.429c0,6.857-8.571,11.429-14.857,11.429H22.857C16.571,430.858,8,426.286,8,419.429V338.857C8,332,16.571,328,22.857,328H336c6.857,0,14.857,4,14.857,10.857v80.572Z" transform="translate(0 -93.713)" fill="#5c605f"/>
        <path id="Pfad_23" d="M8,338.857C8,332,16.571,328,22.857,328H336c6.857,0,14.857,4,14.857,10.857v80.572c0,6.857-8.571,11.429-14.857,11.429" transform="translate(0 -93.713)" fill="#4b4f4e"/>
        <g id="Gruppe_5" transform="translate(36.572 265.144)">
            <path id="Pfad_24" d="M53.714,408.914c0,1.143-1.714,2.286-2.857,2.286h0c-1.143.571-2.857-.571-2.857-2.286V373.486c0-1.143,1.714-2.286,2.857-2.286h0c1.143,0,2.857,1.143,2.857,2.286Z" transform="translate(-48 -371.2)" fill="#112827"/>
            <path id="Pfad_25" d="M77.714,408.914c0,1.143-1.714,2.286-2.857,2.286h0c-1.143,0-2.857-1.143-2.857-2.286V373.486c0-1.143,1.714-2.286,2.857-2.286h0c1.143,0,2.857,1.143,2.857,2.286Z" transform="translate(-54.857 -371.2)" fill="#112827"/>
            <path id="Pfad_26" d="M101.714,408.914c0,1.143-1.714,2.286-2.857,2.286h0c-1.143,0-2.857-1.143-2.857-2.286V373.486c0-1.143,1.714-2.286,2.857-2.286h0c1.143,0,2.857,1.143,2.857,2.286Z" transform="translate(-61.714 -371.2)" fill="#112827"/>
        </g>
        <g id="Gruppe_6" transform="translate(93.715 267.43)">
            <path id="Pfad_27" d="M305.144,394.857a2.7,2.7,0,0,1-2.857,2.857H130.857A2.7,2.7,0,0,1,128,394.857h0A2.7,2.7,0,0,1,130.857,392H301.715c2.286,0,3.429,1.143,3.429,2.857Z" transform="translate(-128 -379.429)" fill="#afbcb8"/>
            <circle id="Ellipse_5" cx="17.714" cy="17.714" r="17.714" transform="translate(158.286)" fill="#afbcb8"/>
        </g>
        <path id="Pfad_53" d="M8.571,0A8.571,8.571,0,1,1,0,8.571,8.571,8.571,0,0,1,8.571,0Z" transform="translate(261.144 276.573)" fill="#16b7ec"/>
        <path id="Pfad_28" d="M376.571,403.2a8.485,8.485,0,1,1-12-12" transform="translate(-101.142 -111.77)" fill="#60b8d2"/>
        <path id="Pfad_29" d="M440.343,395.771a8.571,8.571,0,1,1-8.571-8.571A8.788,8.788,0,0,1,440.343,395.771Z" transform="translate(-118.627 -110.627)" fill="#60b8d2"/>
        <path id="Pfad_30" d="M437.372,403.2a8.485,8.485,0,1,1-12-12" transform="translate(-118.513 -111.77)" fill="#16b7ec"/>
    </g>
</svg>
